<svg width="61" height="56" viewBox="0 0 61 56" fill="none" xmlns="http://www.w3.org/2000/svg">
<path d="M11.0403 10.6414C11.0403 8.17598 14.4097 3.31616 17.1056 1.89196C20.5523 0.0723712 26.7873 0.0302812 30.216 1.80364C31.6237 2.5323 34.3009 4.6893 36.1647 6.5979L39.5534 10.068L42.7102 8.21738C45.1377 6.79525 46.7779 6.36743 49.8092 6.36743C53.999 6.36743 56.2809 7.51494 58.7995 10.8885C61.9039 15.0458 60.5845 22.7817 56.3299 25.3761C53.4145 27.1536 47.6066 27.0977 42.0085 25.2381C36.4083 23.3771 28.0625 23.1998 22.7707 24.8296C17.1401 26.563 16.9076 26.7962 18.2414 29.3755C19.322 31.4649 19.4324 31.5084 21.2685 30.5582C24.5461 28.8635 31.0137 28.0265 35.3498 28.7365C39.187 29.3645 45.5414 31.7361 45.5414 32.5406C45.5414 32.7587 44.7582 34.178 43.8018 35.694C42.3252 38.0325 41.8015 38.3844 40.3428 38.018C38.6853 37.6019 36.5711 38.639 36.5711 39.868C36.5711 40.1868 37.228 41.0589 38.0305 41.8062L39.4892 43.1656L35.8887 49.4572C33.909 52.9176 31.9452 55.6343 31.5264 55.4949C31.1068 55.3548 29.8821 53.8064 28.8049 52.053C27.1234 49.3164 26.9688 48.6692 27.7147 47.4748C28.7125 45.878 28.2667 45.1784 26.1815 45.0652C25.1727 45.0107 24.0031 43.7714 22.4181 41.0789C21.1533 38.9302 20.3011 36.9899 20.5247 36.7663C21.5059 35.7851 22.5402 36.5717 24.0755 39.4657C25.0422 41.2887 26.2084 42.5708 26.8998 42.5708C28.8491 42.5708 30.59 45.048 30.1594 47.2098C29.9497 48.2635 30.1781 49.8705 30.6666 50.7813C31.5409 52.4119 31.5919 52.3718 34.0691 48.1461C36.3993 44.1702 36.5069 43.7473 35.5423 42.37C34.1719 40.4145 34.2278 38.9213 35.7403 37.0534C36.5332 36.0742 37.8373 35.4801 39.3629 35.4035C41.1881 35.3118 41.7463 34.9812 41.7463 33.9938C41.7463 30.6341 28.5331 29.793 21.9461 32.7331C18.3435 34.3416 18.4746 34.4092 15.8132 29.5701C14.1986 26.634 14.1924 26.5547 15.4944 25.6025C18.0661 23.7222 24.5482 21.7446 29.3445 21.3761C33.11 21.0877 35.5002 21.3575 40.0398 22.5836C48.6127 24.8993 53.0405 25.0981 55.3625 23.2723C59.0617 20.3618 59.2873 14.3317 55.8269 10.8712C52.8059 7.85029 47.4003 7.74817 43.0049 10.6276C41.0935 11.88 41.3826 12.4914 44.7237 14.2558C46.2963 15.0865 46.7972 15.6103 46.0368 15.6296C43.4065 15.6945 39.6872 13.4091 34.9496 8.81494C32.2323 6.17975 29.1361 3.69222 28.0701 3.28649C23.3068 1.47588 17.3561 3.09052 14.8831 6.86563C13.5734 8.86393 12.7033 12.8999 13.5824 12.8999C13.9364 12.8999 14.7575 13.2883 15.4061 13.7624C16.3887 14.4807 15.7214 14.6249 11.4157 14.6249C6.82086 14.6249 6.05287 14.8167 4.51964 16.35C0.545809 20.3217 2.3302 25.915 8.29888 28.2025C11.188 29.31 11.2522 29.3879 9.30424 29.4231C5.00127 29.5004 0 24.9463 0 20.9503C0 16.9731 3.5267 13.465 8.45276 12.5411C10.4442 12.1678 11.0403 11.7303 11.0403 10.6414Z" fill="#1E1E1E"/>
<path d="M30.1884 38.6984C27.7975 40.204 25.105 36.8112 26.9384 34.6024C27.3959 34.0511 28.315 33.6005 28.9809 33.6005C31.7265 33.6005 32.5773 37.1934 30.1884 38.6984Z" fill="#1E1E1E"/>
</svg>
